<?xml version="1.0" encoding="utf-8" ?><svg xmlns="http://www.w3.org/2000/svg" xmlns:xlink="http://www.w3.org/1999/xlink" width="1024" height="1024" viewBox="0 0 1024 1024"><path d="M608.028 331.227C625.729 330.685 643.597 331.847 661.251 330.965C677.891 357.984 698.853 382.512 716.568 408.871C722.111 402.226 726.891 394.874 731.925 387.838C740.599 375.714 749.562 363.796 758.36 351.762C763.36 344.923 768.107 337.539 773.517 331.039L823.969 331.045C823.115 378.752 823.853 426.559 823.825 474.281L823.816 523.053C823.856 528.346 823.171 534.557 823.841 539.738C804.921 540.356 785.947 539.428 767.038 539.965C767.734 529.387 767.347 518.586 767.359 507.972C767.369 499.55 767.842 490.749 767.239 482.356C767.012 461.279 766.947 440.2 767.045 419.122C762.971 424.487 758.62 429.98 755.146 435.745C748.644 442.964 743.051 451.79 737.213 459.622C730.106 469.158 722.221 478.612 715.709 488.525C708.298 482.305 697.965 465.813 691.902 457.367L664.611 420.035C663.301 459.973 664.535 499.965 664.068 539.91C645.347 540.207 626.632 539.927 607.911 540.048L608.07 401.497L608.037 355.712C608.05 347.605 608.474 339.317 608.028 331.227Z"/><path d="M288.682 326.708C294.852 326.299 301.04 326.245 307.215 326.549C331.781 327.718 355.492 335.93 375.519 350.204C380.178 353.518 385.182 357.226 388.993 361.513C384.937 367.243 379.535 372.228 374.589 377.186C367.433 384.358 360.235 391.47 353.36 398.916C342.279 388.055 330.925 379.124 315.527 375.361C299.825 371.523 281.127 372.919 267.131 381.444C254.525 389.122 246.385 401.389 242.954 415.62C238.653 433.458 240.732 456.384 250.56 472.164C258.036 484.167 270.154 492.229 283.884 495.28C303.262 499.692 323.599 496.255 340.451 485.719L340.551 459.882C326.264 460.396 311.828 460.005 297.524 460.036C297.938 446.193 298.705 431.789 297.564 417.992C307.776 417.724 318.033 417.904 328.25 417.89L370.527 417.719C377.865 417.68 385.751 417.061 393.025 417.978L393.026 472.468C393.039 483.258 392.85 494.098 393.375 504.877C393.056 505.277 392.74 505.681 392.4 506.063C372.597 528.371 337.678 540.258 308.524 542.312C275.716 544.624 241.013 538.165 215.601 516.094C195.28 498.446 184.237 472.641 182.545 446.058C180.574 415.091 187.141 385.077 208.085 361.31C228.622 338.004 258.57 328.723 288.682 326.708Z"/><path d="M406.957 331.168C410.722 331.438 414.696 331.127 418.482 331.146L444.681 331.337L535.514 331.321C553.771 331.227 572.327 330.352 590.541 331.479L590.545 378.349C576.788 378.563 563.029 378.583 549.272 378.408C542.083 378.351 534.453 377.778 527.314 378.555C526.693 391.225 526.937 404.063 526.968 416.748C527.077 436.597 527.084 456.446 526.989 476.295L527.148 539.969C508.213 540.025 489.148 540.603 470.233 539.897C470.66 533.968 470.257 527.773 470.247 521.813L470.198 485.749L470.028 378.375C457.792 377.928 445.433 378.3 433.18 378.313C424.541 378.323 415.604 377.811 406.999 378.451L406.957 331.168Z"/><path d="M418.156 565.206C439.153 563.571 466.989 564.945 484.139 578.12C497.487 588.374 503.481 603.727 505.622 619.997C508.047 638.439 504.846 660.05 493.156 675.034C480.857 690.798 461.961 694.986 443.124 697.438C418.917 697.713 392.481 698.243 373.118 681.296C360.297 670.074 354.539 653.506 353.522 636.845C352.391 618.301 355.673 599.418 368.437 585.181C381.227 570.917 399.674 566.314 418.156 565.206ZM437.619 672.229C448.784 670.709 459.342 668.351 466.505 658.777C474.023 648.728 475.528 634.178 473.733 622.099C472.289 612.385 468.47 603.497 460.349 597.568C450.82 590.61 434.233 588.382 422.843 590.192C412.106 591.414 401.158 594.253 394.144 603.128C386.232 613.14 385.081 627.216 386.671 639.447C387.92 649.053 391.671 658.549 399.627 664.524C409.02 671.578 425.697 674.208 437.095 672.404C437.277 672.375 437.444 672.287 437.619 672.229Z"/><path d="M564.333 565.8C574.32 565.03 584.651 565.666 594.674 565.744L649.885 566.009C650.112 572.798 650.354 579.871 650.067 586.652C649.901 590.592 647.889 590.208 644.395 590.218L594.099 590.073C584.524 590.079 573.939 589.505 564.521 591.13C560.742 591.782 556.518 593.13 553.739 595.9C551.9 597.734 551.218 599.769 551.254 602.338C551.317 606.948 553.603 610.181 557.749 612.119C569.74 617.723 604.515 613.655 619.946 615.672C629.497 616.92 640.125 620.124 647.015 627.228C653.736 634.157 656.691 643.388 656.632 652.914C656.565 663.869 653.518 675.265 645.455 683.088C634.182 694.026 617.795 695.327 602.934 695.058L518.433 695.077C519.375 687.389 518.924 679.233 518.997 671.479C542.967 670.789 567.084 671.574 591.072 671.521C599.774 671.502 615.252 672.885 621.693 665.96C624.014 663.466 625.584 660.479 625.341 657.02C624.986 651.976 622.571 647.676 618.064 645.289C606.113 638.958 567.417 643.351 550.97 640.355C543.613 639.015 535.966 635.898 530.266 630.973C523.099 624.78 520.214 616.217 519.557 607.011C518.82 596.688 520.284 587.176 527.306 579.157C536.566 568.584 551.108 566.648 564.333 565.8Z"/></svg>